<svg xmlns="http://www.w3.org/2000/svg" width="17" height="17" fill="none" viewBox="0 0 17 17">
    <path fill="#222" d="M8.33337 16L5.83337 12.4444H9.16671H11.6667L8.33337 16Z"/>
    <path fill="#222" d="M5.83337 7.11111L4.92792 6.68668L3.91108 8.85592L6.16838 8.05333L5.83337 7.11111ZM10.8334 5.33333L11.807 5.56152L12.2252 3.77713L10.4984 4.39112L10.8334 5.33333ZM8.33337 16L7.51534 16.5752L8.22229 17.5806L9.06291 16.6839L8.33337 16ZM5.83337 12.4444V11.4444H3.9078L5.01534 13.0196L5.83337 12.4444ZM11.6667 12.4444L12.3962 13.1284L13.9749 11.4444H11.6667V12.4444ZM8.26125 -0.424434L4.92792 6.68668L6.73883 7.53555L10.0722 0.424434L8.26125 -0.424434ZM6.16838 8.05333L11.1684 6.27555L10.4984 4.39112L5.49836 6.1689L6.16838 8.05333ZM9.85976 5.10514L8.19309 12.2163L10.1403 12.6726L11.807 5.56152L9.85976 5.10514ZM8.19309 12.2163L7.35976 15.7718L9.30699 16.2282L10.1403 12.6726L8.19309 12.2163ZM9.1514 15.4248L6.6514 11.8693L5.01534 13.0196L7.51534 16.5752L9.1514 15.4248ZM9.06291 16.6839L12.3962 13.1284L10.9372 11.7605L7.60384 15.3161L9.06291 16.6839ZM5.83337 13.4444H9.16671V11.4444H5.83337V13.4444ZM9.16671 13.4444H11.6667V11.4444H9.16671V13.4444Z"/>
</svg>
