<?xml version="1.0" encoding="utf-8"?>
<svg width="26" height="26" viewBox="0 0 26 26" xmlns="http://www.w3.org/2000/svg">
    <g id="mandatory-constraint-violation">
        <path id="rhombus" fill="none" stroke="#000" stroke-width="1.34" d="M13 1l11.844 11.844L13 24.688 1.156 12.844z"/>
        <path id="lightning" d="M0 6.542l-.455-.207-.32.707H0v-.5zm3.97 0l.475.16.22-.66h-.694v.5zM1.47 14l-.448.222.278.56.485-.393-.314-.39zm-1-2.025v-.5h-.806l.357.722.45-.222zm3.5 0l.315.39 1.097-.89h-1.41v.5zM2.516-.207l-2.97 6.542.91.414L3.425.206l-.91-.414zM0 7.043h3.97v-1H0v1zm3.497-.66l-2.5 7.458.948.32 2.5-7.46-.948-.317zM1.92 13.778L.916 11.754l-.896.443 1.002 2.025.897-.444zm-.135.61l2.5-2.024-.63-.777-2.5 2.024.63.78zM.47 12.476h3.5v-1H.47v1z" transform="translate(11.03 6)"/>
    </g>
</svg>
