<?xml version="1.0" encoding="UTF-8" standalone="no"?>
<svg
   xmlns:dc="http://purl.org/dc/elements/1.1/"
   xmlns:cc="http://creativecommons.org/ns#"
   xmlns:rdf="http://www.w3.org/1999/02/22-rdf-syntax-ns#"
   xmlns:svg="http://www.w3.org/2000/svg"
   xmlns="http://www.w3.org/2000/svg"
   xmlns:sodipodi="http://sodipodi.sourceforge.net/DTD/sodipodi-0.dtd"
   xmlns:inkscape="http://www.inkscape.org/namespaces/inkscape"
   width="264"
   height="162"
   viewBox="0 0 264 162"
   version="1.1"
   id="svg4019"
   sodipodi:docname="ConstraintSuggestions-beta-features-ltr.svg"
   inkscape:version="0.92.3 (2405546, 2018-03-11)">
  <metadata
     id="metadata4023">
    <rdf:RDF>
      <cc:Work
         rdf:about="">
        <dc:format>image/svg+xml</dc:format>
        <dc:type
           rdf:resource="http://purl.org/dc/dcmitype/StillImage" />
        <dc:title></dc:title>
      </cc:Work>
    </rdf:RDF>
  </metadata>
  <sodipodi:namedview
     pagecolor="#ffffff"
     bordercolor="#666666"
     borderopacity="1"
     objecttolerance="10"
     gridtolerance="10"
     guidetolerance="10"
     inkscape:pageopacity="0"
     inkscape:pageshadow="2"
     inkscape:window-width="1871"
     inkscape:window-height="1163"
     id="namedview4021"
     showgrid="false"
     inkscape:zoom="2.1213203"
     inkscape:cx="-10.218733"
     inkscape:cy="16.456591"
     inkscape:window-x="1969"
     inkscape:window-y="0"
     inkscape:window-maximized="1"
     inkscape:current-layer="svg4019" />
  <defs
     id="defs3925">
    <clipPath
       id="a">
      <path
         d="M0 0v152l12 10 12-10 12 10 12-10 12 10 12-10 12 10 12-10 12 10 12-10 12 10 12-10 12 10 12-10 12 10 12-10 12 10 12-10 12 10 12-10 12 10 12-10V0z"
         id="path3888" />
    </clipPath>
    <mask
       id="b"
       fill="#fff" />
    <filter
       x="-.5"
       y="-.5"
       width="2"
       height="2"
       filterUnits="objectBoundingBox"
       id="c">
      <feOffset
         dy="1"
         in="SourceAlpha"
         result="shadowOffsetOuter1"
         id="feOffset3892" />
      <feColorMatrix
         values="0 0 0 0 0 0 0 0 0 0 0 0 0 0 0 0 0 0 0.15 0"
         in="shadowOffsetOuter1"
         result="shadowMatrixOuter1"
         id="feColorMatrix3894" />
      <feMerge
         id="feMerge3900">
        <feMergeNode
           in="shadowMatrixOuter1"
           id="feMergeNode3896" />
        <feMergeNode
           in="SourceGraphic"
           id="feMergeNode3898" />
      </feMerge>
    </filter>
    <filter
       x="-.5"
       y="-.5"
       width="2"
       height="2"
       filterUnits="objectBoundingBox"
       id="d">
      <feOffset
         dy="1"
         in="SourceAlpha"
         result="shadowOffsetOuter1"
         id="feOffset3903" />
      <feColorMatrix
         values="0 0 0 0 0 0 0 0 0 0 0 0 0 0 0 0 0 0 0.15 0"
         in="shadowOffsetOuter1"
         result="shadowMatrixOuter1"
         id="feColorMatrix3905" />
      <feMerge
         id="feMerge3911">
        <feMergeNode
           in="shadowMatrixOuter1"
           id="feMergeNode3907" />
        <feMergeNode
           in="SourceGraphic"
           id="feMergeNode3909" />
      </feMerge>
    </filter>
    <filter
       x="-.5"
       y="-.5"
       width="2"
       height="2"
       filterUnits="objectBoundingBox"
       id="e">
      <feOffset
         dy="1"
         in="SourceAlpha"
         result="shadowOffsetOuter1"
         id="feOffset3914" />
      <feColorMatrix
         values="0 0 0 0 0 0 0 0 0 0 0 0 0 0 0 0 0 0 0.15 0"
         in="shadowOffsetOuter1"
         result="shadowMatrixOuter1"
         id="feColorMatrix3916" />
      <feMerge
         id="feMerge3922">
        <feMergeNode
           in="shadowMatrixOuter1"
           id="feMergeNode3918" />
        <feMergeNode
           in="SourceGraphic"
           id="feMergeNode3920" />
      </feMerge>
    </filter>
  </defs>
  <g
     clip-path="url(#a)"
     id="g3941"
     transform="matrix(-1,0,0,1,264,0)">
    <path
       d="m 263.5,162.25 -263,-0.5 V 0.5 h 263 z"
       id="path3927"
       inkscape:connector-curvature="0"
       style="fill:#ffffff" />
    <path
       d="M 252,162.496 V 29 H 48 V 162.496 Z M 11,22 C 11,14.268 17.268,8 25,8 32.732,8 39,14.268 39,22 39,29.732 32.732,36 25,36 17.268,36 11,29.732 11,22 Z M 38,163.807 V 58 H 13 V 163.807 Z M 233,5 h 26 v 6 h -26 z m -24,0 h 22 v 6 h -22 z m -24,0 h 22 v 6 h -22 z m -23,0 h 13 v 6 h -13 z m 15,0 h 6 v 6 h -6 z m -23,0 h 6 v 6 h -6 z"
       id="path3929"
       inkscape:connector-curvature="0"
       style="fill:#e5e5e5" />
    <g
       id="g3935"
       style="fill:#e5e5e5">
      <path
         d="m 258,16 v 4 h -92 v -4 h 92 m 1,-1 h -94 v 6 h 94 z"
         id="path3931"
         inkscape:connector-curvature="0" />
      <path
         d="m 168,17 h 2 v 2 h -2 z"
         id="path3933"
         inkscape:connector-curvature="0" />
    </g>
    <path
       d="M 38,45 V 40 H 13 v 5 z"
       id="path3937"
       inkscape:connector-curvature="0"
       style="fill:#e5e5e5" />
    <path
       d="M 0,0 V 162 H 264 V 0 Z m 1,1 h 262 v 150.533 l -11,9.166 -12,-10 -12,10 -12,-10 -12,10 -12,-10 -12,10 -12,-10 -12,10 -12,-10 -12,10 -12,-10 -12,10 -12,-10 -12,10 -12,-10 -12,10 -12,-10 -12,10 -12,-10 -12,10 -11,-9.168 z"
       id="path3939"
       inkscape:connector-curvature="0"
       style="fill:#e5e5e5" />
  </g>
  <g
     id="g3991"
     transform="matrix(-1,0,0,1,264,0)"
     style="fill:none;fill-rule:evenodd">
    <g
       mask="url(#b)"
       transform="translate(0,-1.807)"
       id="g3957">
      <path
         d="m 263.5,162.25 -263,-0.5 V 0.5 h 263 z"
         id="path3943"
         inkscape:connector-curvature="0"
         style="fill:#ffffff" />
      <g
         id="g3949"
         style="fill:#e5e5e5">
        <path
           d="m 258,16 v 4 h -92 v -4 z m 1,-1 h -94 v 6 h 94 z"
           id="path3945"
           inkscape:connector-curvature="0" />
        <path
           d="m 168,17 h 2 v 2 h -2 z"
           id="path3947"
           inkscape:connector-curvature="0" />
      </g>
      <path
         d="M 38,45 V 40 H 13 v 5 z"
         id="path3951"
         inkscape:connector-curvature="0"
         style="fill:#e5e5e5" />
      <path
         d="M 0,0 V 162 H 264 V 0 Z m 1,1 h 262 v 150.533 l -11,9.166 -12,-10 -12,10 -12,-10 -12,10 -12,-10 -12,10 -12,-10 -12,10 -12,-10 -12,10 -12,-10 -12,10 -12,-10 -12,10 -12,-10 -12,10 -12,-10 -12,10 -12,-10 -12,10 -11,-9.168 z"
         id="path3953"
         inkscape:connector-curvature="0"
         style="fill:#e5e5e5" />
      <path
         d="M 252,162.496 V 29 H 48 V 162.496 Z M 11,22 C 11,14.268 17.268,8 25,8 32.732,8 39,14.268 39,22 39,29.732 32.732,36 25,36 17.268,36 11,29.732 11,22 Z M 38,163.807 V 58 H 13 V 163.807 Z M 233,5 h 26 v 6 h -26 z m -24,0 h 22 v 6 h -22 z m -24,0 h 22 v 6 h -22 z m -23,0 h 13 v 6 h -13 z m 15,0 h 6 v 6 h -6 z m -23,0 h 6 v 6 h -6 z"
         id="path3955"
         inkscape:connector-curvature="0"
         style="fill:#e5e5e5" />
    </g>
    <path
       d="m 48,54.193 h 204 v 4 H 48 Z"
       id="path3959"
       inkscape:connector-curvature="0"
       style="fill:#ffffff" />
    <g
       transform="translate(63,33.193)"
       id="g3967"
       style="filter:url(#c)">
      <rect
         width="46.297001"
         height="15.751"
         rx="2"
         id="rect3961"
         x="0"
         y="0"
         style="fill:#f8f9fa" />
      <path
         d="M 8.715,6.518 H 30.502 V 10.32 H 8.715 Z"
         id="path3963"
         inkscape:connector-curvature="0"
         style="fill:#c8ccd1" />
      <path
         d="m 42.365,4.655 -2.876,2.913 -2.517,-2.51 -0.629,0.627 2.517,2.51 -2.247,2.24 a 0.865,0.865 0 0 0 0,1.255 l 2.876,-2.868 2.516,2.51 0.63,-0.627 -2.517,-2.51 2.247,-2.286 a 0.865,0.865 0 0 0 0,-1.254 z"
         id="path3965"
         inkscape:connector-curvature="0"
         style="fill:#72777d" />
    </g>
    <g
       transform="translate(115,33.193)"
       id="g3975"
       style="filter:url(#d)">
      <rect
         width="46.297001"
         height="15.751"
         rx="2"
         id="rect3969"
         x="0"
         y="0"
         style="fill:#f8f9fa" />
      <path
         d="M 8.715,6.518 H 30.502 V 10.32 H 8.715 Z"
         id="path3971"
         inkscape:connector-curvature="0"
         style="fill:#c8ccd1" />
      <path
         d="m 42.365,4.655 -2.876,2.913 -2.517,-2.51 -0.629,0.627 2.517,2.51 -2.247,2.24 a 0.865,0.865 0 0 0 0,1.255 l 2.876,-2.868 2.516,2.51 0.63,-0.627 -2.517,-2.51 2.247,-2.286 a 0.865,0.865 0 0 0 0,-1.254 z"
         id="path3973"
         inkscape:connector-curvature="0"
         style="fill:#72777d" />
    </g>
    <g
       transform="translate(167,33.193)"
       id="g3981"
       style="filter:url(#e)">
      <rect
         width="46.297001"
         height="15.751"
         rx="2"
         id="rect3977"
         x="0"
         y="0"
         style="fill:#3366cc" />
      <path
         d="M 8.715,6.518 H 30.502 V 10.32 H 8.715 Z m 33.65,-1.863 -2.876,2.913 -2.517,-2.51 -0.629,0.627 2.517,2.51 -2.247,2.24 a 0.865,0.865 0 0 0 0,1.255 l 2.876,-2.868 2.516,2.51 0.63,-0.627 -2.517,-2.51 2.247,-2.286 a 0.865,0.865 0 0 0 0,-1.254 z"
         id="path3979"
         inkscape:connector-curvature="0"
         style="fill:#2a4b8d" />
    </g>
    <path
       d="m 78,75.193 h 145 v 4 H 78 Z"
       id="path3983"
       inkscape:connector-curvature="0"
       style="fill:#a2a9b1" />
    <path
       d="m 63,87.193 h 175 v 18 H 63 Z"
       id="path3985"
       inkscape:connector-curvature="0"
       style="fill:#3366cc" />
    <path
       d="m 78,94.193 h 145 v 4 H 78 Z"
       id="path3987"
       inkscape:connector-curvature="0"
       style="fill:#2a4b8d" />
    <path
       d="m 78,113.193 h 145 v 4 H 78 Z m 0,19 h 145 v 4 H 78 Z"
       id="path3989"
       inkscape:connector-curvature="0"
       style="fill:#a2a9b1" />
  </g>
  <path
     d="M 215.018,29.682 H 12.999 v 117.696 h 202.019 z"
     id="path3993"
     inkscape:connector-curvature="0"
     style="fill:#e5e5e5;stroke:#e5e5e5;stroke-width:1.89100003" />
  <path
     d="m 197.65074,116.91459 h -71.80915 v 10.10014 h 71.80915 z"
     id="path3995"
     inkscape:connector-curvature="0"
     style="fill:#ffffff;stroke:#3366cc;stroke-width:1.69952428" />
  <path
     d="m 194.56,69.338 h -58.167 v 2.367 h 58.167 z"
     id="path4009"
     inkscape:connector-curvature="0"
     style="fill:#989fa6;stroke:#989fa6;stroke-width:1.80400002" />
  <path
     d="m 173.934,93.382 h -58.167 v 2.367 h 58.167 z"
     id="path4013"
     inkscape:connector-curvature="0"
     style="fill:#a2a9b1;stroke:#a2a9b1;stroke-width:1.80400002" />
  <path
     d="M 173.95736,80.764801 H 115.9118 v 2.702516 h 58.04556 z m 0.0798,23.167219 h -58.04555 v 2.70251 h 58.04556 z"
     id="path4017"
     inkscape:connector-curvature="0"
     style="fill:#a2a9b1;stroke:#a2a9b1;stroke-width:1.9256078" />
  <path
     style="fill:none;fill-rule:evenodd;stroke:#000000;stroke-width:0.07251041px;stroke-linecap:butt;stroke-linejoin:miter;stroke-opacity:1"
     d="m 198.48407,128.6814 0.001,15.98907"
     id="path4025"
     inkscape:connector-curvature="0" />
  <path
     style="fill:none;fill-rule:evenodd;stroke:#000000;stroke-width:0.07251041px;stroke-linecap:butt;stroke-linejoin:miter;stroke-opacity:1"
     d="m 125.00826,128.6814 10e-4,15.98907"
     id="path4025-3"
     inkscape:connector-curvature="0" />
  <path
     style="fill:none;fill-rule:evenodd;stroke:#000000;stroke-width:0.15453294px;stroke-linecap:butt;stroke-linejoin:miter;stroke-opacity:1"
     d="m 125.22896,144.70507 72.93188,-0.001"
     id="path4025-6"
     inkscape:connector-curvature="0" />
  <path
     inkscape:connector-curvature="0"
     style="fill:#3366cc;stroke:#3366cc;stroke-width:1.31018758"
     d="m 195.42412,133.13148 h -67.84823 v 1.07037 h 67.84823 z"
     id="path4013-5-5" />
  <path
     inkscape:connector-curvature="0"
     style="fill:#3366cc;stroke:#3366cc;stroke-width:1.31018758"
     d="m 195.25745,139.79815 h -67.84824 v 1.07037 h 67.84824 z"
     id="path4013-5-6" />
  <path
     inkscape:connector-curvature="0"
     style="fill:#989fa6;stroke:#989fa6;stroke-width:1.80400002"
     d="m 190.91683,120.3165 h -58.16699 v 2.367 h 58.16699 z"
     id="path4009-2" />
</svg>
