<?xml version="1.0" encoding="UTF-8" standalone="no"?>
<svg
   xmlns:dc="http://purl.org/dc/elements/1.1/"
   xmlns:cc="http://creativecommons.org/ns#"
   xmlns:rdf="http://www.w3.org/1999/02/22-rdf-syntax-ns#"
   xmlns:svg="http://www.w3.org/2000/svg"
   xmlns="http://www.w3.org/2000/svg"
   xmlns:sodipodi="http://sodipodi.sourceforge.net/DTD/sodipodi-0.dtd"
   xmlns:inkscape="http://www.inkscape.org/namespaces/inkscape"
   width="264"
   height="162"
   viewBox="0 0 264 162"
   version="1.1"
   id="svg4019"
   sodipodi:docname="ConstraintSuggestions-beta-features-ltr.svg"
   inkscape:version="0.92.3 (2405546, 2018-03-11)">
  <metadata
     id="metadata4023">
    <rdf:RDF>
      <cc:Work
         rdf:about="">
        <dc:format>image/svg+xml</dc:format>
        <dc:type
           rdf:resource="http://purl.org/dc/dcmitype/StillImage" />
        <dc:title></dc:title>
      </cc:Work>
    </rdf:RDF>
  </metadata>
  <sodipodi:namedview
     pagecolor="#ffffff"
     bordercolor="#666666"
     borderopacity="1"
     objecttolerance="10"
     gridtolerance="10"
     guidetolerance="10"
     inkscape:pageopacity="0"
     inkscape:pageshadow="2"
     inkscape:window-width="1871"
     inkscape:window-height="1163"
     id="namedview4021"
     showgrid="false"
     inkscape:zoom="2.1213203"
     inkscape:cx="-10.218733"
     inkscape:cy="16.456591"
     inkscape:window-x="1969"
     inkscape:window-y="0"
     inkscape:window-maximized="1"
     inkscape:current-layer="svg4019" />
  <defs
     id="defs3925">
    <clipPath
       id="a">
      <path
         d="M0 0v152l12 10 12-10 12 10 12-10 12 10 12-10 12 10 12-10 12 10 12-10 12 10 12-10 12 10 12-10 12 10 12-10 12 10 12-10 12 10 12-10 12 10 12-10V0z"
         id="path3888" />
    </clipPath>
    <mask
       id="b"
       fill="#fff" />
    <filter
       x="-.5"
       y="-.5"
       width="2"
       height="2"
       filterUnits="objectBoundingBox"
       id="c">
      <feOffset
         dy="1"
         in="SourceAlpha"
         result="shadowOffsetOuter1"
         id="feOffset3892" />
      <feColorMatrix
         values="0 0 0 0 0 0 0 0 0 0 0 0 0 0 0 0 0 0 0.15 0"
         in="shadowOffsetOuter1"
         result="shadowMatrixOuter1"
         id="feColorMatrix3894" />
      <feMerge
         id="feMerge3900">
        <feMergeNode
           in="shadowMatrixOuter1"
           id="feMergeNode3896" />
        <feMergeNode
           in="SourceGraphic"
           id="feMergeNode3898" />
      </feMerge>
    </filter>
    <filter
       x="-.5"
       y="-.5"
       width="2"
       height="2"
       filterUnits="objectBoundingBox"
       id="d">
      <feOffset
         dy="1"
         in="SourceAlpha"
         result="shadowOffsetOuter1"
         id="feOffset3903" />
      <feColorMatrix
         values="0 0 0 0 0 0 0 0 0 0 0 0 0 0 0 0 0 0 0.15 0"
         in="shadowOffsetOuter1"
         result="shadowMatrixOuter1"
         id="feColorMatrix3905" />
      <feMerge
         id="feMerge3911">
        <feMergeNode
           in="shadowMatrixOuter1"
           id="feMergeNode3907" />
        <feMergeNode
           in="SourceGraphic"
           id="feMergeNode3909" />
      </feMerge>
    </filter>
    <filter
       x="-.5"
       y="-.5"
       width="2"
       height="2"
       filterUnits="objectBoundingBox"
       id="e">
      <feOffset
         dy="1"
         in="SourceAlpha"
         result="shadowOffsetOuter1"
         id="feOffset3914" />
      <feColorMatrix
         values="0 0 0 0 0 0 0 0 0 0 0 0 0 0 0 0 0 0 0.15 0"
         in="shadowOffsetOuter1"
         result="shadowMatrixOuter1"
         id="feColorMatrix3916" />
      <feMerge
         id="feMerge3922">
        <feMergeNode
           in="shadowMatrixOuter1"
           id="feMergeNode3918" />
        <feMergeNode
           in="SourceGraphic"
           id="feMergeNode3920" />
      </feMerge>
    </filter>
  </defs>
  <g
     clip-path="url(#a)"
     id="g3941">
    <path
       d="M263.5 162.25l-263-.5V.5h263z"
       fill="#fff"
       id="path3927" />
    <path
       d="M252 162.496V29H48v133.496zM11 22c0-7.732 6.268-14 14-14s14 6.268 14 14-6.268 14-14 14-14-6.268-14-14zm27 141.807V58H13v105.807h25zM233 5h26v6h-26V5zm-24 0h22v6h-22zm-24 0h22v6h-22zm-23 0h13v6h-13zm15 0h6v6h-6zm-23 0h6v6h-6z"
       fill="#e5e5e5"
       id="path3929" />
    <g
       fill="#e5e5e5"
       id="g3935">
      <path
         d="M258 16v4h-92v-4h92m1-1h-94v6h94v-6z"
         id="path3931" />
      <path
         d="M168 17h2v2h-2z"
         id="path3933" />
    </g>
    <path
       d="M38 45v-5H13v5h25z"
       fill="#e5e5e5"
       id="path3937" />
    <path
       d="M0 0v162h264V0zm1 1h262v150.533l-11 9.166-12-10-12 10-12-10-12 10-12-10-12 10-12-10-12 10-12-10-12 10-12-10-12 10-12-10-12 10-12-10-12 10-12-10-12 10-12-10-12 10-11-9.168z"
       fill="#e5e5e5"
       id="path3939" />
  </g>
  <g
     fill="none"
     fill-rule="evenodd"
     id="g3991">
    <g
       mask="url(#b)"
       transform="translate(0 -1.807)"
       id="g3957">
      <path
         fill="#fff"
         d="M263.5 162.25l-263-.5V.5h263z"
         id="path3943" />
      <g
         fill="#e5e5e5"
         id="g3949">
        <path
           d="M258 16v4h-92v-4zm1-1h-94v6h94z"
           id="path3945" />
        <path
           d="M168 17h2v2h-2z"
           id="path3947" />
      </g>
      <path
         fill="#e5e5e5"
         d="M38 45v-5H13v5z"
         id="path3951" />
      <path
         d="M0 0v162h264V0zm1 1h262v150.533l-11 9.166-12-10-12 10-12-10-12 10-12-10-12 10-12-10-12 10-12-10-12 10-12-10-12 10-12-10-12 10-12-10-12 10-12-10-12 10-12-10-12 10-11-9.168z"
         fill="#e5e5e5"
         id="path3953" />
      <path
         fill="#e5e5e5"
         d="M252 162.496V29H48v133.496zM11 22c0-7.732 6.268-14 14-14s14 6.268 14 14-6.268 14-14 14-14-6.268-14-14zm27 141.807V58H13v105.807zM233 5h26v6h-26zm-24 0h22v6h-22zm-24 0h22v6h-22zm-23 0h13v6h-13zm15 0h6v6h-6zm-23 0h6v6h-6z"
         id="path3955" />
    </g>
    <path
       fill="#fff"
       d="M48 54.193h204v4H48z"
       id="path3959" />
    <g
       filter="url(#c)"
       transform="translate(63 33.193)"
       id="g3967">
      <rect
         width="46.297"
         height="15.751"
         rx="2"
         fill="#f8f9fa"
         id="rect3961" />
      <path
         fill="#c8ccd1"
         d="M8.715 6.518h21.787v3.802H8.715z"
         id="path3963" />
      <path
         d="M42.365 4.655l-2.876 2.913-2.517-2.51-.629.627 2.517 2.51-2.247 2.24a.865.865 0 0 0 0 1.255l2.876-2.868 2.516 2.51.63-.627-2.517-2.51 2.247-2.286a.865.865 0 0 0 0-1.254z"
         fill="#72777d"
         id="path3965" />
    </g>
    <g
       transform="translate(115 33.193)"
       filter="url(#d)"
       id="g3975">
      <rect
         width="46.297"
         height="15.751"
         rx="2"
         fill="#f8f9fa"
         id="rect3969" />
      <path
         fill="#c8ccd1"
         d="M8.715 6.518h21.787v3.802H8.715z"
         id="path3971" />
      <path
         d="M42.365 4.655l-2.876 2.913-2.517-2.51-.629.627 2.517 2.51-2.247 2.24a.865.865 0 0 0 0 1.255l2.876-2.868 2.516 2.51.63-.627-2.517-2.51 2.247-2.286a.865.865 0 0 0 0-1.254z"
         fill="#72777d"
         id="path3973" />
    </g>
    <g
       transform="translate(167 33.193)"
       filter="url(#e)"
       id="g3981">
      <rect
         width="46.297"
         height="15.751"
         rx="2"
         fill="#36c"
         id="rect3977" />
      <path
         fill="#2a4b8d"
         d="M8.715 6.518h21.787v3.802H8.715zm33.65-1.863l-2.876 2.913-2.517-2.51-.629.627 2.517 2.51-2.247 2.24a.865.865 0 0 0 0 1.255l2.876-2.868 2.516 2.51.63-.627-2.517-2.51 2.247-2.286a.865.865 0 0 0 0-1.254z"
         id="path3979" />
    </g>
    <path
       fill="#a2a9b1"
       d="M78 75.193h145v4H78z"
       id="path3983" />
    <path
       fill="#36c"
       d="M63 87.193h175v18H63z"
       id="path3985" />
    <path
       fill="#2a4b8d"
       d="M78 94.193h145v4H78z"
       id="path3987" />
    <path
       fill="#a2a9b1"
       d="M78 113.193h145v4H78zm0 19h145v4H78z"
       id="path3989" />
  </g>
  <path
     fill="#e5e5e5"
     stroke="#e5e5e5"
     stroke-width="1.891"
     d="M48.982 29.682h202.019v117.696H48.982z"
     id="path3993" />
  <path
     d="m 66.349262,116.91459 h 71.809148 v 10.10014 H 66.349262 Z"
     id="path3995"
     inkscape:connector-curvature="0"
     style="fill:#ffffff;stroke:#3366cc;stroke-width:1.69952428" />
  <path
     fill="#989fa6"
     stroke="#989fa6"
     stroke-width="1.804"
     d="M69.44 69.338h58.167v2.367H69.44z"
     id="path4009" />
  <path
     d="M90.066 93.382h58.167v2.367H90.066z"
     id="path4013"
     stroke-width="1.804"
     stroke="#a2a9b1"
     fill="#a2a9b1" />
  <path
     d="M 90.042636,80.764801 H 148.0882 v 2.702516 H 90.042636 Z m -0.07983,23.167219 h 58.045554 v 2.70251 H 89.962804 Z"
     id="path4017"
     inkscape:connector-curvature="0"
     style="fill:#a2a9b1;stroke:#a2a9b1;stroke-width:1.9256078" />
  <path
     style="fill:none;fill-rule:evenodd;stroke:#000000;stroke-width:0.07251041px;stroke-linecap:butt;stroke-linejoin:miter;stroke-opacity:1"
     d="m 65.515929,128.6814 -0.0012,15.98907"
     id="path4025"
     inkscape:connector-curvature="0" />
  <path
     style="fill:none;fill-rule:evenodd;stroke:#000000;stroke-width:0.07251041px;stroke-linecap:butt;stroke-linejoin:miter;stroke-opacity:1"
     d="m 138.99174,128.6814 -0.001,15.98907"
     id="path4025-3"
     inkscape:connector-curvature="0" />
  <path
     style="fill:none;fill-rule:evenodd;stroke:#000000;stroke-width:0.15453294px;stroke-linecap:butt;stroke-linejoin:miter;stroke-opacity:1"
     d="m 138.77104,144.70507 -72.931881,-0.001"
     id="path4025-6"
     inkscape:connector-curvature="0" />
  <path
     inkscape:connector-curvature="0"
     style="fill:#3366cc;stroke:#3366cc;stroke-width:1.31018758"
     d="m 68.575879,133.13148 h 67.848231 v 1.07037 H 68.575879 Z"
     id="path4013-5-5" />
  <path
     inkscape:connector-curvature="0"
     style="fill:#3366cc;stroke:#3366cc;stroke-width:1.31018758"
     d="m 68.742547,139.79815 h 67.848243 v 1.07037 H 68.742547 Z"
     id="path4013-5-6" />
  <path
     inkscape:connector-curvature="0"
     style="fill:#989fa6;stroke:#989fa6;stroke-width:1.80400002"
     d="m 73.083166,120.3165 h 58.166994 v 2.367 H 73.083166 Z"
     id="path4009-2" />
</svg>
